<svg width="129" height="130" viewBox="0 0 129 130" fill="none" xmlns="http://www.w3.org/2000/svg">
<path d="M86 3L116.819 19.1111C117.266 19.345 117.651 19.6828 117.941 20.0961V20.0961C119.776 22.7126 119.773 26.1991 117.932 28.8117L99.9706 54.3059C99.031 55.6396 97.5888 56.5332 95.9762 56.7808L95.0343 56.9254C93.0809 57.2253 91.0856 56.7916 89.4329 55.7077L57 34.4372M86 3L57 34.4372M86 3L30.5916 14.1566C29.5571 14.3649 28.6151 14.8951 27.9003 15.6714L14.7652 29.937C12.9593 31.8983 11.751 34.3344 11.2824 36.9589L3 83.3394M57 34.4372L31.6531 57.3913M3 83.3394L35.5 125.256L68 100.197L31.6531 57.3913M3 83.3394L31.6531 57.3913" stroke="url(#paint0_angular)" stroke-width="4"/>
<path d="M123.622 108.165L96.2476 126.106C95.1074 126.854 93.7738 127.252 92.4105 127.252H38.9976C37.7399 127.252 36.5555 126.66 35.7999 125.655L35.5 125.256L62.5 104.725L87.96 83.7137C88.3188 83.4177 88.7108 83.1643 89.1281 82.9588L92.7182 81.1906C96.8625 79.1494 101.811 79.6685 105.441 82.5253L123.782 96.9578C124.905 97.841 125.755 99.0228 126.236 100.367C127.271 103.258 126.19 106.482 123.622 108.165Z" stroke="url(#paint1_angular)" stroke-width="4"/>
<defs>
<radialGradient id="paint0_angular" cx="0" cy="0" r="1" gradientUnits="userSpaceOnUse" gradientTransform="translate(62 64.1278) rotate(90) scale(61.1278 59)">
<stop offset="0.565625" stop-color="#00B761"/>
<stop offset="0.997917" stop-color="#6187EE"/>
</radialGradient>
<radialGradient id="paint1_angular" cx="0" cy="0" r="1" gradientUnits="userSpaceOnUse" gradientTransform="translate(81.75 102.551) rotate(90) scale(24.7006 46.25)">
<stop offset="0.294792" stop-color="#00B761"/>
<stop offset="0.898958" stop-color="#6187EE"/>
</radialGradient>
</defs>
</svg>
